<?xml version="1.0" encoding="utf-8"?>
<!-- Generator: Adobe Illustrator 19.2.1, SVG Export Plug-In . SVG Version: 6.00 Build 0)  -->
<svg version="1.1" id="Capa_1" xmlns="http://www.w3.org/2000/svg" xmlns:xlink="http://www.w3.org/1999/xlink" x="0px" y="0px"
	 width="23.4px" height="32px" viewBox="0.1 -0.3 23.4 32" style="enable-background:new 0.1 -0.3 23.4 32;" xml:space="preserve">
<style type="text/css">
	.st0{fill:#69B0DE;}
</style>
<path class="st0" d="M23,4.1c-9.4,0-11-3.6-11.1-3.7c0-0.1-0.1-0.1-0.2-0.1c-0.1,0-0.1,0-0.2,0.1c0,0-1.5,3.8-11.1,3.8
	c-0.1,0-0.2,0.1-0.2,0.2v15.8c0,6.3,10.9,11.1,11.4,11.3c0,0,0,0,0.1,0l0.1,0c0.1,0,11.4-5,11.4-11.3V4.3C23.2,4.2,23.1,4.1,23,4.1z
	 M20.9,19.2c0,5-8.7,8.9-9,9.1c0,0-0.1,0-0.1,0c-0.1,0-0.1,0-0.1,0c-0.4-0.2-9-4-9-9.1V6.8c0-0.2,0.2-0.4,0.4-0.4
	c7.2,0,8.5-2.8,8.5-2.8c0.1-0.1,0.2-0.2,0.3-0.2c0,0,0,0,0,0c0.1,0,0.3,0.1,0.3,0.2c0,0,1.2,2.8,8.5,2.8c0.2,0,0.4,0.2,0.4,0.4V19.2
	z"/>
<path class="st0" d="M16.4,12.5c-2.7,1.7-4.7,3.7-5.5,4.8l-2.6-2.1l-1,0.8l4.2,4.2c0.6-1.6,2.7-4.9,5.2-7.1L16.4,12.5z"/>
<path class="st0" d="M18.9,8.7C13,8.7,12,6.5,12,6.5c0-0.1-0.2-0.2-0.3-0.2h0v7c3.8-2.8,5.7-3.5,5.7-3.5s1.2,1.8,1.5,3.5L18,14.4
	c-4.2,4.8-6.2,9.7-6.2,9.7v2.4c0,0,0.1,0,0.1,0c0.3-0.1,7.3-3.3,7.3-7.4V9C19.2,8.8,19.1,8.7,18.9,8.7z"/>
</svg>
